<svg xmlns="http://www.w3.org/2000/svg" viewBox="0 0 512 512" id="svg-da38">
    <g>
        <path d="m511 307c0-5.682-3.21-10.876-8.292-13.416l-43.168-21.584 43.168-21.584c5.082-2.54 8.292-7.734 8.292-13.416s-3.21-10.876-8.292-13.416l-112.921-56.46c-.575-4.484-3.146-8.659-7.364-11.094l-12.3-7.102c.583-4.672.877-9.328.877-13.928s-.294-9.256-.877-13.928l12.3-7.102c7.175-4.143 9.633-13.316 5.49-20.49l-30-51.961c-4.143-7.175-13.316-9.634-20.49-5.49l-12.353 7.131c-7.489-5.679-15.536-10.359-24.07-14v-14.16c0-8.284-6.716-15-15-15h-60c-8.284 0-15 6.716-15 15v14.16c-8.534 3.641-16.581 8.321-24.07 14l-12.353-7.131c-7.177-4.144-16.349-1.684-20.49 5.49l-30 51.961c-4.143 7.174-1.685 16.348 5.49 20.49l12.3 7.102c-.583 4.672-.877 9.328-.877 13.928s.294 9.256.877 13.928l-12.3 7.102c-4.217 2.435-6.789 6.611-7.364 11.094l-112.921 56.46c-5.082 2.54-8.292 7.734-8.292 13.416s3.21 10.876 8.292 13.416l43.168 21.584-43.168 21.584c-5.082 2.54-8.292 7.734-8.292 13.416s3.21 10.876 8.292 13.416l43.168 21.584-43.168 21.584c-5.082 2.54-8.292 7.734-8.292 13.416s3.21 10.876 8.292 13.416l240 120c2.111 1.056 4.409 1.584 6.708 1.584s4.597-.528 6.708-1.584l240-120c5.082-2.54 8.292-7.734 8.292-13.416s-3.21-10.876-8.292-13.416l-43.168-21.584 43.168-21.584c5.082-2.54 8.292-7.734 8.292-13.416zm-337.928-153.552c-1.375-6.209-2.072-12.416-2.072-18.448s.697-12.239 2.072-18.448c1.416-6.391-1.476-12.962-7.145-16.234l-8.36-4.827 15-25.98 8.422 4.861c5.674 3.275 12.814 2.49 17.641-1.938 9.372-8.598 20.093-14.832 31.865-18.53 6.252-1.965 10.505-7.758 10.505-14.311v-9.593h30v9.593c0 6.553 4.253 12.347 10.505 14.311 11.772 3.698 22.493 9.933 31.865 18.53 4.826 4.428 11.967 5.213 17.641 1.938l8.422-4.861 15 25.98-8.36 4.827c-5.669 3.272-8.561 9.844-7.145 16.234 1.375 6.209 2.072 12.416 2.072 18.448s-.697 12.239-2.072 18.448c-1.416 6.391 1.476 12.962 7.145 16.234l8.36 4.827-15 25.98-8.422-4.862c-5.674-3.275-12.816-2.49-17.641 1.938-9.371 8.598-20.092 14.833-31.865 18.531-6.252 1.964-10.505 7.758-10.505 14.311v9.593h-30v-9.593c0-6.553-4.253-12.347-10.505-14.311-11.773-3.698-22.494-9.934-31.865-18.531-4.825-4.428-11.967-5.214-17.641-1.938l-8.422 4.862-15-25.98 8.36-4.827c5.67-3.272 8.561-9.843 7.145-16.234zm-123.531 83.552 84.943-42.472 19.603 33.952c4.143 7.176 13.317 9.634 20.49 5.49l12.353-7.132c7.489 5.68 15.536 10.359 24.07 14.001v14.161c0 8.284 6.716 15 15 15h60c8.284 0 15-6.716 15-15v-14.16c8.534-3.642 16.581-8.321 24.07-14.001l12.353 7.132c7.173 4.143 16.348 1.684 20.49-5.49l19.603-33.952 84.943 42.471-206.459 103.229zm412.918 140-206.459 103.229-206.459-103.229 36.459-18.23 163.292 81.646c2.111 1.056 4.409 1.584 6.708 1.584s4.597-.528 6.708-1.584l163.292-81.646zm-206.459 33.229-206.459-103.229 36.459-18.23 163.292 81.646c2.111 1.056 4.409 1.584 6.708 1.584s4.597-.528 6.708-1.584l163.292-81.646 36.459 18.23z"></path>
        <path d="m256 190c30.327 0 55-24.673 55-55s-24.673-55-55-55-55 24.673-55 55 24.673 55 55 55zm0-80c13.785 0 25 11.215 25 25s-11.215 25-25 25-25-11.215-25-25 11.215-25 25-25z"></path>
    </g>
</svg>